# xmcd
#
# Track frame offsets:
#	150
#	14854
#	26416
#	39089
#	44336
#	48190
#	55112
#	59858
#	73908
#	88452
#	100086
#	114896
#
# Disc length: 1565 seconds
#
# Revision: 1
# Processed by: cddbd v1.5.2PL0 Copyright (c) Steve Scherf et al.
# Submitted via: audiograbber 1.83.01
#
DISCID=a4061b0c
DTITLE=C.J. McKnight - Stinker Lets Loose!
DYEAR=2018
DGENRE=Country
TTITLE0=Stinker Lets Loose!
TTITLE1=Makin' Time
TTITLE2=The Legend of Stinker
TTITLE3=Ears On
TTITLE4=The Ballad of Boner
TTITLE5=Stake Out
TTITLE6=Ears On, Part 2
TTITLE7=Oh! Rascal
TTITLE8=Stinker Lets Loose! (End Credits)
TTITLE9=Stinker Strikes Back
TTITLE10=Stinker Lets Loose! (Radio Mix)
TTITLE11=Radio Promo
EXTD=
EXTT0=
EXTT1=
EXTT2=
EXTT3=
EXTT4=
EXTT5=
EXTT6=
EXTT7=
EXTT8=
EXTT9=
EXTT10=
EXTT11=
PLAYORDER=
